#!OML:ASF H:\Terrain\Patient Classification 1\Terrain2\Thursday\justin.ASF
:FULLY-SPECIFIED
:DEGREES
3295
root 7.41928 17.7104 -0.430347 376.178 -56.3838 -23.819
lowerback 20.6441 2.87604 0.918104
upperback 5.36141 3.89567 2.61982
thorax -5.82187 1.78857 1.32065
lowerneck -9.61259 -6.81065 -13.0539
upperneck 32.4527 -11.2219 10.6502
head 14.0356 -5.48637 4.78704
rclavicle -6.67916e-014 1.35174e-014
rhumerus -35.2503 -18.498 -70.5013
rradius 47.0984
rwrist -17.9502
rhand -34.6301 15.0778
rfingers 7.12502
rthumb -7.7878 -14.7587
lclavicle -6.67916e-014 1.35174e-014
lhumerus -42.4688 7.41514 75.5441
lradius 47.9296
lwrist 9.03897
lhand -21.9098 19.5462
lfingers 7.12502
lthumb 4.49582 49.4785
rfemur -94.4762 -33.601 37.6586
rtibia 117.812
rfoot -16.4157 7.83951
rtoes 8.07827
lfemur -4.98524 4.0075 -2.91359
ltibia 38.6821
lfoot -12.9581 -12.2261
ltoes 2.39849
3296
root 7.36558 17.66 -0.442981 376.031 -56.2165 -23.9389
lowerback 21.0251 2.95078 1.21816
upperback 5.51801 4.03391 2.43332
thorax -5.81849 1.84731 0.90452
lowerneck -9.61844 -6.9137 -12.6219
upperneck 32.2593 -11.4368 10.6451
head 13.9517 -5.52312 4.6655
rclavicle -3.4191e-014 1.82882e-014
rhumerus -35.1266 -18.7805 -70.6714
rradius 47.2924
rwrist -17.847
rhand -34.5902 15.6892
rfingers 7.12502
rthumb -7.74926 -14.1488
lclavicle -3.4191e-014 1.82882e-014
lhumerus -42.4593 7.00805 75.3385
lradius 49.1265
lwrist 9.58703
lhand -22.3199 19.2838
lfingers 7.12502
lthumb 4.09988 49.2241
rfemur -94.5935 -33.185 37.4273
rtibia 116.38
rfoot -14.9468 7.30571
rtoes 10.3588
lfemur -5.41535 4.27297 -2.69375
ltibia 40.2564
lfoot -13.5921 -11.6878
ltoes -1.54573
3297
root 7.314 17.5978 -0.458272 375.694 -56.0477 -23.7568
lowerback 21.3695 3.07871 1.48622
upperback 5.67233 4.22563 2.09693
thorax -5.78555 1.93387 0.33281
lowerneck -9.80347 -7.08671 -11.7574
upperneck 32.1921 -11.7947 10.4711
head 13.9388 -5.58379 4.37324
rclavicle -1.11319e-014 -1.19271e-014
rhumerus -35.0432 -19.2055 -71.0204
rradius 47.6173
rwrist -17.7277
rhand -35.083 15.594
rfingers 7.12502
rthumb -8.22485 -14.2259
lclavicle -1.11319e-014 -1.19271e-014
lhumerus -42.3045 6.26827 75.0775
lradius 50.3462
lwrist 10.0537
lhand -22.9675 19.3584
lfingers 7.12502
lthumb 3.47444 49.3098
rfemur -94.8988 -32.7774 37.0396
rtibia 114.995
rfoot -13.2565 6.6649
rtoes 11.1902
lfemur -5.88982 4.54958 -2.63758
ltibia 41.7975
lfoot -14.3038 -10.9567
ltoes -5.54279
3298
root 7.26217 17.5409 -0.477071 375.94 -56.2229 -24.0639
lowerback 21.6205 3.24581 1.51396
upperback 5.72801 4.44207 2.04076
thorax -5.84808 2.03459 0.190799
lowerneck -9.91897 -7.13825 -11.7395
upperneck 32.148 -11.8881 10.5813
head 13.9672 -5.60318 4.3948
rclavicle 2.78299e-015 4.77083e-015
rhumerus -34.972 -18.7381 -71.163
rradius 48.1659
rwrist -18.3471
rhand -35.0541 15.3519
rfingers 7.12502
rthumb -8.19701 -14.4691
lclavicle 2.78299e-015 4.77083e-015
lhumerus -42.4408 6.40943 74.8056
lradius 51.5685
lwrist 9.86775
lhand -22.5351 19.8104
lfingers 7.12502
lthumb 3.89206 49.7546
rfemur -95.1842 -31.7176 36.7703
rtibia 113.518
rfoot -11.2232 5.74161
rtoes 12.59
lfemur -6.34424 5.19224 -2.34817
ltibia 43.2413
lfoot -14.8432 -10.5466
ltoes -7.45601
3299
root 7.21019 17.4895 -0.493337 376.145 -56.5105 -24.256
lowerback 21.8722 3.29578 0.96718
upperback 5.6607 4.41441 2.2988
thorax -6.11498 2.02168 0.768637
lowerneck -9.83815 -6.95109 -12.4141
upperneck 32.1752 -11.4757 10.6195
head 13.9516 -5.50392 4.60331
rclavicle -3.77691e-014 -1.43125e-014
rhumerus -34.7876 -16.9002 -71.1506
rradius 48.6572
rwrist -19.2132
rhand -34.9545 15.2709
rfingers 7.12502
rthumb -8.10089 -14.5538
lclavicle -3.77691e-014 -1.43125e-014
lhumerus -43.2235 7.62767 74.6339
lradius 52.874
lwrist 9.61444
lhand -21.9616 19.9831
lfingers 7.12502
lthumb 4.4458 49.9165
rfemur -95.4537 -30.5987 36.4111
rtibia 111.895
rfoot -8.94428 4.66382
rtoes 14.266
lfemur -6.79775 5.72321 -2.19387
ltibia 44.5256
lfoot -14.9995 -10.6357
ltoes -5.87627
3300
root 7.15587 17.4246 -0.508448 376.41 -56.4859 -24.6544
lowerback 22.1 3.19184 0.801994
upperback 5.70242 4.25433 2.48975
thorax -6.21256 1.94179 1.10124
lowerneck -9.8875 -6.74569 -12.5275
upperneck 32.2048 -11.0673 10.413
head 13.9026 -5.36175 4.60743
rclavicle -3.61788e-014 -3.10104e-014
rhumerus -34.1725 -15.5876 -71.3867
rradius 48.818
rwrist -19.4384
rhand -35.361 15.2361
rfingers 7.12502
rthumb -8.49317 -14.5731
lclavicle -3.61788e-014 -3.10104e-014
lhumerus -43.7371 8.61742 74.366
lradius 53.9792
lwrist 9.60788
lhand -22.2712 19.3113
lfingers 7.12502
lthumb 4.14684 49.2507
rfemur -95.5841 -29.8136 36.27
rtibia 110.191
rfoot -6.88448 3.39125
rtoes 14.964
lfemur -7.14109 5.90499 -1.78777
ltibia 45.6631
lfoot -15.0411 -11.0295
ltoes -2.65871
3301
root 7.09785 17.356 -0.526884 376.868 -56.4783 -25.3683
lowerback 22.3252 3.11914 1.01461
upperback 5.85627 4.19567 2.5181
thorax -6.14642 1.90578 1.02216
lowerneck -10.0589 -6.60676 -12.3468
upperneck 32.1741 -10.8857 10.4402
head 13.8857 -5.25213 4.61298
rclavicle -4.92986e-014 -2.14687e-014
rhumerus -33.6228 -14.8674 -71.7701
rradius 49.0845
rwrist -19.3491
rhand -35.6567 15.4411
rfingers 7.12502
rthumb -8.77854 -14.3563
lclavicle -4.92986e-014 -2.14687e-014
lhumerus -43.7536 9.09953 73.9366
lradius 54.9721
lwrist 9.68327
lhand -22.7184 18.9059
lfingers 7.12502
lthumb 3.71504 48.8533
rfemur -95.7161 -29.078 36.3867
rtibia 108.541
rfoot -4.87085 2.15181
rtoes 15.0164
lfemur -7.26393 6.11446 -1.12113
ltibia 46.6943
lfoot -15.3525 -11.3763
ltoes -0.717285
3302
root 7.03908 17.2968 -0.544149 377.132 -56.4787 -25.8686
lowerback 22.6682 3.11721 1.0851
upperback 5.93798 4.20596 2.55264
thorax -6.23113 1.90416 1.00442
lowerneck -10.1137 -6.54879 -12.2507
upperneck 32.1232 -10.8262 10.4932
head 13.8621 -5.20672 4.62533
rclavicle 3.85642e-014 1.11319e-014
rhumerus -33.3967 -14.1372 -71.9538
rradius 49.4132
rwrist -19.2245
rhand -35.9882 15.7348
rfingers 7.12502
rthumb -9.09837 -14.049
lclavicle 3.85642e-014 1.11319e-014
lhumerus -43.8075 9.48924 73.5258
lradius 56.0004
lwrist 9.53643
lhand -22.4228 19.2494
lfingers 7.12502
lthumb 4.00049 49.1916
rfemur -95.8917 -28.5397 36.4041
rtibia 106.909
rfoot -2.73817 1.30353
rtoes 14.6493
lfemur -7.38353 6.32023 -0.553236
ltibia 47.6811
lfoot -15.7173 -11.5882
ltoes -0.79595
3303
root 6.97813 17.24 -0.561306 377.048 -56.3966 -25.9921
lowerback 23.0213 3.15354 1.05006
upperback 6.01951 4.24148 2.56021
thorax -6.32661 1.91604 1.00981
lowerneck -10.2205 -6.58471 -12.4411
upperneck 32.2167 -10.9078 10.7071
head 13.9706 -5.23798 4.73482
rclavicle 3.93594e-014 1.59028e-014
rhumerus -33.0601 -13.7908 -72.0079
rradius 49.4064
rwrist -18.4736
rhand -36.7888 15.5783
rfingers 7.12502
rthumb -9.87087 -14.1703
lclavicle 3.93594e-014 1.59028e-014
lhumerus -43.7811 9.79555 73.2385
lradius 56.8934
lwrist 9.3821
lhand -22.0465 19.3122
lfingers 7.12502
lthumb 4.36382 49.2473
rfemur -95.9971 -28.1967 36.1285
rtibia 105.218
rfoot -0.589528 0.638167
rtoes 15.2929
lfemur -7.53907 6.28336 -0.184672
ltibia 48.6596
lfoot -16.1426 -11.4254
ltoes -4.12164
